<?xml version="1.0" standalone="no"?>
<!DOCTYPE svg PUBLIC "-//W3C//DTD SVG 20010904//EN"
 "http://www.w3.org/TR/2001/REC-SVG-20010904/DTD/svg10.dtd">
<svg version="1.0" xmlns="http://www.w3.org/2000/svg"
 width="380.000000pt" height="380.000000pt" viewBox="0 0 380.000000 380.000000"
 preserveAspectRatio="xMidYMid meet">
<metadata>
Created by potrace 1.11, written by Peter Selinger 2001-2013
</metadata>
<g transform="translate(0.000000,380.000000) scale(0.100000,-0.100000)"
fill="#000000" stroke="none">
<path d="M1760 3647 c-3 -3 -38 -7 -78 -11 -109 -9 -252 -41 -386 -87 -120
-41 -303 -129 -363 -175 -17 -13 -34 -24 -37 -24 -7 0 -121 -85 -166 -125 -30
-26 -141 -136 -203 -202 -12 -13 -17 -23 -12 -23 6 0 3 -5 -6 -10 -26 -15
-121 -159 -113 -172 4 -6 3 -8 -3 -5 -6 4 -16 0 -23 -8 -7 -8 -9 -15 -5 -15 4
0 2 -7 -5 -15 -6 -8 -9 -19 -5 -25 4 -6 1 -9 -6 -8 -43 9 -189 -385 -214 -577
-4 -27 -9 -61 -11 -75 -2 -14 -7 -77 -10 -140 -15 -266 58 -595 188 -855 57
-113 140 -241 156 -238 5 1 9 -3 8 -10 -3 -28 180 -231 198 -220 5 3 6 2 3 -4
-8 -13 58 -77 72 -69 7 4 8 1 5 -8 -4 -12 0 -16 17 -16 12 0 19 -3 16 -6 -10
-10 65 -65 80 -60 7 3 12 0 10 -7 -1 -7 4 -11 11 -9 6 1 12 -4 12 -11 0 -12
11 -19 65 -46 6 -3 3 4 -5 15 -14 18 -14 18 3 5 9 -7 17 -20 17 -28 0 -13 3
-13 16 -3 12 11 15 11 12 0 -3 -14 71 -62 84 -54 4 3 8 0 8 -6 0 -6 4 -9 9 -6
5 3 11 -1 15 -9 3 -8 11 -15 19 -15 7 0 33 -9 56 -21 24 -11 52 -19 62 -16 10
3 17 0 16 -5 -2 -12 51 -30 64 -23 4 3 9 1 11 -5 1 -5 12 -11 23 -13 11 -1 26
-6 34 -11 8 -5 16 -3 22 5 7 12 9 11 9 -1 0 -9 8 -17 18 -18 28 -3 46 -7 57
-13 6 -3 19 -5 30 -5 11 1 22 -2 25 -5 11 -15 202 -30 354 -28 241 2 466 51
673 144 79 36 204 108 225 128 7 8 18 15 23 16 11 4 94 60 111 76 7 5 25 19
40 30 77 54 211 189 290 293 133 174 235 377 295 586 52 184 67 298 64 491 -6
306 -55 515 -179 764 -148 294 -336 511 -597 687 -287 194 -623 298 -979 303
-64 1 -118 0 -120 -2z"/>
</g>
</svg>
